<?xml version="1.0" encoding="utf-8"?>
<!-- Generator: Adobe Illustrator 24.0.2, SVG Export Plug-In . SVG Version: 6.00 Build 0)  -->
<svg version="1.1" id="Layer_1" xmlns="http://www.w3.org/2000/svg" xmlns:xlink="http://www.w3.org/1999/xlink" x="0px" y="0px"
	 viewBox="0 0 57 79" style="enable-background:new 0 0 57 79;" xml:space="preserve">
<style type="text/css">
	.st0{fill:#3F4A3C;}
	.st1{fill:#F6EDD9;}
</style>
<g>
	<path class="st0" d="M12.86,17.71v10.27h7.41L12.86,17.71z"/>
	<path class="st0" d="M25.18,34.79v2.19h1.58L25.18,34.79z"/>
	<path class="st0" d="M9.16,54.84c-0.43-0.24-0.8-0.5-1.11-0.77c-0.31-0.27-0.47-0.56-0.47-0.86c0-0.59,0.25-0.88,0.75-0.88
		c0.33,0,0.7,0.18,1.1,0.55c0.4,0.37,0.86,0.69,1.36,0.96s1.05,0.51,1.63,0.71c1.21,0.4,2.33,0.61,3.36,0.61
		c1.03,0,1.82-0.07,2.38-0.2c0.56-0.13,1.02-0.32,1.4-0.55c0.81-0.5,1.21-1.14,1.21-1.93c0-0.72-0.35-1.45-1.05-2.18
		c-0.59-0.62-1.42-1.37-2.49-2.24l-3.14-2.46c-3.14-2.42-5-4.63-5.56-6.64c-0.2-0.7-0.29-1.47-0.29-2.33s0.19-1.7,0.58-2.53
		s0.96-1.56,1.71-2.18c1.63-1.36,3.84-2.04,6.64-2.04c1.43,0,2.71,0.21,3.85,0.63c1.14,0.42,1.91,0.8,2.33,1.13
		c0.42,0.33,0.62,0.63,0.62,0.9c0,0.56-0.23,0.84-0.7,0.84c-0.27,0-0.56-0.13-0.86-0.4s-0.65-0.5-1.02-0.71
		c-0.37-0.2-0.8-0.38-1.27-0.54c-1.03-0.34-2.04-0.51-3.03-0.51c-1.82,0-2.73,0.6-2.73,1.8c0,0.5,0.17,0.97,0.5,1.39
		c0.59,0.75,1.73,1.81,3.44,3.2c1.71,1.39,3.08,2.6,4.11,3.64s1.82,1.97,2.36,2.81c0.86,1.31,1.28,2.67,1.28,4.08
		s-0.25,2.61-0.74,3.59c-0.5,0.98-1.19,1.83-2.08,2.54c-1.88,1.49-4.22,2.24-7.01,2.24S11.08,55.95,9.16,54.84z"/>
	<path class="st0" d="M41.3,57.13v2.16h1.56L41.3,57.13z M40.16,55.76c-1.34,1.32-2.5,1.99-3.48,1.99h-0.61
		c-0.18,0-0.33-0.04-0.46-0.1v-8.41l-6.89-9.54h-0.96v13.64c0,4.2,2.15,6.29,6.44,6.29c2.61,0,4.89-0.96,6.82-2.89l-0.77-1.07
		L40.16,55.76z"/>
	<path class="st0" d="M44.41,61.43c-0.75-0.1-1.58-0.15-2.5-0.15c-1.54,0-3.06,0.24-4.57,0.73c-1.51,0.49-2.89,1.21-4.14,2.16
		c-0.92-1.93-3.35-2.89-7.29-2.89c-3.05,0-5.81,0.86-8.27,2.59v-2.33H8.23v15.43h9.41V65.48c0.42-0.38,0.87-0.73,1.33-1.05
		c1.52-1.03,2.85-1.55,3.99-1.55h0.7c0.21,0,0.4,0.03,0.56,0.08v14.01h9.39V66.22c0-0.23-0.01-0.46-0.04-0.69
		c0.86-0.78,1.8-1.42,2.82-1.91c0.47-0.23,0.92-0.41,1.37-0.54c0.44-0.13,0.93-0.2,1.45-0.2c0.53,0,0.86,0.02,0.99,0.06v14.03h9.39
		v-8.35L44.41,61.43z"/>
</g>
<g>
	<path class="st0" d="M12.86,17.71v10.27h7.41L12.86,17.71z"/>
	<path class="st0" d="M25.18,34.79v2.19h1.58L25.18,34.79z"/>
	<path class="st0" d="M9.16,54.84c-0.43-0.24-0.8-0.5-1.11-0.77c-0.31-0.27-0.47-0.56-0.47-0.86c0-0.59,0.25-0.88,0.75-0.88
		c0.33,0,0.7,0.18,1.1,0.55c0.4,0.37,0.86,0.69,1.36,0.96s1.05,0.51,1.63,0.71c1.21,0.4,2.33,0.61,3.36,0.61
		c1.03,0,1.82-0.07,2.38-0.2c0.56-0.13,1.02-0.32,1.4-0.55c0.81-0.5,1.21-1.14,1.21-1.93c0-0.72-0.35-1.45-1.05-2.18
		c-0.59-0.62-1.42-1.37-2.49-2.24l-3.14-2.46c-3.14-2.42-5-4.63-5.56-6.64c-0.2-0.7-0.29-1.47-0.29-2.33s0.19-1.7,0.58-2.53
		s0.96-1.56,1.71-2.18c1.63-1.36,3.84-2.04,6.64-2.04c1.43,0,2.71,0.21,3.85,0.63c1.14,0.42,1.91,0.8,2.33,1.13
		c0.42,0.33,0.62,0.63,0.62,0.9c0,0.56-0.23,0.84-0.7,0.84c-0.27,0-0.56-0.13-0.86-0.4s-0.65-0.5-1.02-0.71
		c-0.37-0.2-0.8-0.38-1.27-0.54c-1.03-0.34-2.04-0.51-3.03-0.51c-1.82,0-2.73,0.6-2.73,1.8c0,0.5,0.17,0.97,0.5,1.39
		c0.59,0.75,1.73,1.81,3.44,3.2c1.71,1.39,3.08,2.6,4.11,3.64s1.82,1.97,2.36,2.81c0.86,1.31,1.28,2.67,1.28,4.08
		s-0.25,2.61-0.74,3.59c-0.5,0.98-1.19,1.83-2.08,2.54c-1.88,1.49-4.22,2.24-7.01,2.24S11.08,55.95,9.16,54.84z"/>
	<path class="st0" d="M41.3,57.13v2.16h1.56L41.3,57.13z M40.16,55.76c-1.34,1.32-2.5,1.99-3.48,1.99h-0.61
		c-0.18,0-0.33-0.04-0.46-0.1v-8.41l-6.89-9.54h-0.96v13.64c0,4.2,2.15,6.29,6.44,6.29c2.61,0,4.89-0.96,6.82-2.89l-0.77-1.07
		L40.16,55.76z"/>
	<path class="st0" d="M44.41,61.43c-0.75-0.1-1.58-0.15-2.5-0.15c-1.54,0-3.06,0.24-4.57,0.73c-1.51,0.49-2.89,1.21-4.14,2.16
		c-0.92-1.93-3.35-2.89-7.29-2.89c-3.05,0-5.81,0.86-8.27,2.59v-2.33H8.23v15.43h9.41V65.48c0.42-0.38,0.87-0.73,1.33-1.05
		c1.52-1.03,2.85-1.55,3.99-1.55h0.7c0.21,0,0.4,0.03,0.56,0.08v14.01h9.39V66.22c0-0.23-0.01-0.46-0.04-0.69
		c0.86-0.78,1.8-1.42,2.82-1.91c0.47-0.23,0.92-0.41,1.37-0.54c0.44-0.13,0.93-0.2,1.45-0.2c0.53,0,0.86,0.02,0.99,0.06v14.03h9.39
		v-8.35L44.41,61.43z"/>
</g>
<polygon class="st1" points="22.22,2.03 22.22,27.98 20.27,27.98 12.86,17.71 12.86,2.03 "/>
<path class="st1" d="M45.37,14.02c-0.92-0.88-2.02-1.57-3.3-2.07c-1.28-0.5-2.76-0.76-4.44-0.76c-1.67,0-3.31,0.45-4.91,1.34v-1.01
	h-7.54v23.27l1.58,2.19h5.96v-6.67c1.58,0.77,3.23,1.15,4.93,1.15c3.24,0,5.83-1.01,7.76-3.02c1.87-1.94,2.8-4.36,2.8-7.29
	C48.21,18.26,47.27,15.88,45.37,14.02z M39.01,30.07c-0.14,0.02-0.28,0.03-0.43,0.03h-0.47c-1.95,0-3.74-0.47-5.39-1.43V14.04
	c1.44-1.01,3.06-1.51,4.87-1.51c0.48,0,0.95,0.04,1.42,0.11V30.07z"/>
<path class="st0" d="M38.11,30.1c-1.95,0-3.74-0.47-5.39-1.43V14.04c1.44-1.01,3.06-1.51,4.87-1.51c0.48,0,0.95,0.04,1.42,0.11
	v17.43c-0.14,0.02-0.28,0.03-0.43,0.03H38.11z"/>
<polygon class="st1" points="35.61,39.7 35.61,49.24 28.72,39.7 "/>
<path class="st1" d="M49.19,39.7v19.59h-6.33l-1.56-2.16v-0.67c-0.09,0.1-0.18,0.19-0.28,0.28l-0.77-1.07
	c0.37-0.37,0.72-0.78,1.05-1.23V39.7H49.19z"/>
<path class="st0" d="M41.02,56.74c0.1-0.09,0.19-0.18,0.28-0.28v0.67L41.02,56.74z"/>
<path class="st1" d="M49.59,66.22v2.4l-5.18-7.19c1.38,0.19,2.48,0.55,3.29,1.08C48.96,63.33,49.59,64.56,49.59,66.22z"/>
<path class="st0" d="M57.08,0v79l-7.49-10.38v-2.4c0-1.66-0.63-2.89-1.89-3.71c-0.81-0.53-1.91-0.89-3.29-1.08l-1.55-2.14h6.33V39.7
	H41.3v14.74c-0.33,0.45-0.68,0.86-1.05,1.23l-4.64-6.43V39.7h-6.89l-1.96-2.72h5.96v-6.67c1.58,0.77,3.23,1.15,4.93,1.15
	c3.24,0,5.83-1.01,7.76-3.02c1.87-1.94,2.8-4.36,2.8-7.29c0-2.89-0.94-5.27-2.84-7.13c-0.92-0.88-2.02-1.57-3.3-2.07
	c-1.28-0.5-2.76-0.76-4.44-0.76c-1.67,0-3.31,0.45-4.91,1.34v-1.01h-7.54v23.27l-1.28-1.78l-1.35-1.86v-0.01l-2.28-3.16h1.95V2.03
	h-9.36v15.68L0.08,0H57.08z"/>
</svg>
